<?xml version="1.0" encoding="UTF-8"?>
<!DOCTYPE svg PUBLIC "-//W3C//DTD SVG 1.1//EN" "http://www.w3.org/Graphics/SVG/1.1/DTD/svg11.dtd">
<!-- Creator: CorelDRAW 2018 (64 Bit Versão de avaliação) -->
<svg xmlns="http://www.w3.org/2000/svg" xml:space="preserve" width="1000px" height="185px" version="1.1" style="shape-rendering:geometricPrecision; text-rendering:geometricPrecision; image-rendering:optimizeQuality; fill-rule:evenodd; clip-rule:evenodd"
viewBox="0 0 1000.67 184.72"
 xmlns:xlink="http://www.w3.org/1999/xlink">
 <defs>
  <style type="text/css">
   <![CDATA[
    .fil2 {fill:none}
    .fil0 {fill:#FEFEFE}
    .fil3 {fill:#40A397}
    .fil1 {fill:#FEFEFE;fill-rule:nonzero}
   ]]>
  </style>
 </defs>
 <g id="Camada_x0020_1">
  <metadata id="CorelCorpID_0Corel-Layer"/>
  <path class="fil0" d="M241.44 49.64c12.99,0 22.32,2.59 27.99,7.76 2.95,2.69 5.02,6.1 6.2,10.2 1.13,3.95 1.43,8.55 0.9,13.81 -0.52,5.23 -1.77,9.79 -3.71,13.68 -2,3.98 -4.72,7.24 -8.17,9.76 -3.39,2.49 -7.52,4.35 -12.38,5.57 -4.76,1.2 -10.23,1.8 -16.4,1.8l-6.22 0c-0.5,0 -0.93,-0.19 -1.26,-0.56 -0.34,-0.37 -0.48,-0.82 -0.43,-1.31l1.43 -14.16c0.09,-0.87 0.82,-1.52 1.69,-1.52l7.56 0c3.6,0 6.61,-0.34 9.03,-1 2.23,-0.61 3.97,-1.5 5.19,-2.66 1.27,-1.21 2.29,-2.72 3.05,-4.52 0.8,-1.9 1.34,-4.13 1.59,-6.69 0.25,-2.44 0.09,-4.49 -0.46,-6.13l-0.03 -0.09c-0.5,-1.42 -1.33,-2.56 -2.48,-3.38 -1.34,-0.96 -3.18,-1.69 -5.52,-2.2 -2.49,-0.54 -5.51,-0.81 -9.06,-0.81l-11.66 0c-2.25,22.2 -4.49,44.37 -6.73,66.58 -0.13,1.31 -1.24,2.29 -2.53,2.29l-13.73 0.01c-1.41,0 -2.55,-1.14 -2.55,-2.55l8.23 -81.58c0.13,-1.31 1.24,-2.29 2.53,-2.29l27.93 -0.01zm36.01 83.42l8.19 -81.12c0.13,-1.31 1.24,-2.29 2.53,-2.29l13.73 -0.01c1.41,0 2.55,1.14 2.55,2.55l-6.63 65.75 34.3 0c1.4,0 2.55,1.14 2.55,2.55l-1.34 13.28c-0.13,1.31 -1.24,2.29 -2.53,2.29l-50.84 0.01c-1.41,0 -2.55,-1.14 -2.55,-2.55l0.04 -0.46zm131.28 -80.42l-1.28 12.71c-0.13,1.31 -1.24,2.3 -2.53,2.3l-41.1 0 -1.66 16.43 36.16 0c1.41,0 2.55,1.14 2.55,2.55l-1.25 12.46c-0.13,1.31 -1.24,2.3 -2.53,2.3l-36.68 0 -1.68 16.66 41.98 0c1.41,0 2.55,1.15 2.55,2.55l-1.32 13.17c-0.13,1.31 -1.24,2.29 -2.53,2.29l-58.53 0.01c-1.41,0 -2.55,-1.14 -2.55,-2.55l8.23 -81.58c0.13,-1.31 1.24,-2.29 2.53,-2.29l57.13 -0.01c1.41,0 2.55,1.14 2.55,2.55l-0.04 0.45zm72.5 -3l13.73 0c1.41,0 2.55,1.14 2.55,2.55l-8.23 81.58c-0.13,1.31 -1.24,2.29 -2.54,2.29l-14.89 0.01c-0.92,0 -1.72,-0.49 -2.17,-1.22l-36.09 -53.42 -5.28 52.34c-0.13,1.31 -1.24,2.29 -2.53,2.29l-13.73 0.01c-1.41,0 -2.55,-1.14 -2.55,-2.55l8.23 -81.58c0.13,-1.31 1.24,-2.29 2.53,-2.29l13.73 -0.01c0.92,0 1.72,0.48 2.17,1.21l37.11 54.83 5.43 -53.74c0.13,-1.31 1.24,-2.29 2.53,-2.3zm28.77 85.08c-0.46,0.86 -1.33,1.34 -2.24,1.34l-14.66 0.01c-1.41,0 -2.55,-1.14 -2.55,-2.55 0,-0.5 0.14,-0.97 0.39,-1.36l43.97 -81.18c0.46,-0.85 1.33,-1.33 2.24,-1.34l14.66 0c1.18,0 2.17,0.79 2.46,1.87l27.58 81.19c0.45,1.33 -0.27,2.78 -1.6,3.23 -0.27,0.09 -0.54,0.13 -0.81,0.13l-14.67 0.01c-1.17,0 -2.16,-0.8 -2.46,-1.88l-5.64 -16.62 -29.98 0c-0.61,0 -1.14,-0.3 -1.46,-0.83 -0.31,-0.53 -0.32,-1.14 -0.03,-1.68l7.8 -14.39c0.3,-0.56 0.85,-0.89 1.49,-0.89l16.15 0 -8.38 -24.62c-10.76,19.85 -21.51,39.69 -32.26,59.56z"/>
  <path class="fil1" d="M784.96 176.02c-0.25,2.64 -1.4,4.75 -3.46,6.33 -2.06,1.58 -4.58,2.37 -7.57,2.37 -2.01,0 -4.07,-0.36 -6.17,-1.09 -2.11,-0.73 -3.93,-1.75 -5.47,-3.07l3.24 -4.54c3,2.44 6.01,3.65 9.03,3.65 1.32,0 2.39,-0.3 3.21,-0.91 0.82,-0.61 1.28,-1.38 1.37,-2.32 0.13,-1.39 -1.6,-2.64 -5.18,-3.75 -0.26,-0.1 -0.47,-0.17 -0.6,-0.21 -5.62,-1.56 -8.26,-4.17 -7.92,-7.81 0.24,-2.57 1.44,-4.63 3.58,-6.18 2.14,-1.54 4.81,-2.31 8,-2.31 3.2,0 6.13,0.93 8.8,2.81l-2.59 4.32c-2.12,-1.49 -4.5,-2.24 -7.13,-2.24 -1.39,0 -2.55,0.25 -3.46,0.76 -0.92,0.5 -1.42,1.26 -1.52,2.26 -0.08,0.91 0.31,1.57 1.17,1.98 0.6,0.32 1.45,0.61 2.55,0.89 1.1,0.28 2.08,0.56 2.92,0.83 0.84,0.28 1.65,0.59 2.44,0.94 0.78,0.35 1.61,0.83 2.49,1.46 1.76,1.25 2.51,3.19 2.27,5.83zm10.8 0.97c1.49,1.68 3.51,2.52 6.04,2.52 2.54,0 4.71,-0.84 6.52,-2.52 1.8,-1.69 2.83,-3.87 3.08,-6.54 0.25,-2.67 -0.37,-4.85 -1.86,-6.54 -1.49,-1.68 -3.5,-2.52 -6.04,-2.52 -2.53,0 -4.71,0.84 -6.51,2.52 -1.81,1.69 -2.84,3.87 -3.09,6.54 -0.25,2.67 0.37,4.85 1.86,6.54zm16.36 3.59c-3.04,2.76 -6.64,4.14 -10.8,4.14 -4.17,0 -7.52,-1.38 -10.04,-4.14 -2.52,-2.76 -3.59,-6.14 -3.22,-10.13 0.38,-3.99 2.08,-7.37 5.12,-10.13 3.04,-2.76 6.64,-4.14 10.81,-4.14 4.17,0 7.51,1.38 10.03,4.14 2.52,2.76 3.59,6.14 3.22,10.13 -0.38,3.99 -2.08,7.37 -5.12,10.13zm17.81 -26.28l-0.21 2.29 7.29 0 -0.44 4.69 -7.29 0 -2.16 23.03 -5.83 0 2.15 -23.03 -3.49 0 0.44 -4.69 3.49 0 0.2 -2.13c0.28,-2.92 1.37,-5.24 3.29,-6.96 1.91,-1.72 4.11,-2.58 6.59,-2.58 2.49,0 4.67,0.92 6.54,2.76l-2.78 4.12c-1.03,-1.22 -2.17,-1.82 -3.42,-1.82 -1.25,0 -2.26,0.39 -3.03,1.17 -0.77,0.78 -1.21,1.83 -1.34,3.15zm17.25 6.98l-1.32 14.07c-0.12,1.32 0.13,2.37 0.75,3.15 0.62,0.78 1.56,1.17 2.81,1.17 1.25,0 2.5,-0.61 3.76,-1.82l2.01 4.11c-2.22,1.84 -4.57,2.76 -7.05,2.76 -2.49,0 -4.53,-0.86 -6.12,-2.57 -1.59,-1.72 -2.25,-4.04 -1.98,-6.96l1.31 -13.91 -3.49 0 0.43 -4.69 3.49 0 0.82 -8.7 5.83 0 -0.81 8.7 7.29 0 -0.44 4.69 -7.29 0zm23.19 23.03l-6.66 0 -6.99 -27.72 6.04 0 4.91 20.94 8.84 -20.94 6.05 0 4.91 20.94 8.84 -20.94 6.04 0 -12.18 27.72 -6.67 0 -4.78 -18.97 -8.35 18.97zm54.53 0l-5.31 0 0.34 -3.7c-2.55,2.74 -5.75,4.11 -9.6,4.11 -2.89,0 -5.2,-0.81 -6.94,-2.44 -1.74,-1.64 -2.48,-3.82 -2.22,-6.54 0.25,-2.73 1.45,-4.77 3.59,-6.12 2.14,-1.36 4.93,-2.03 8.37,-2.03l7.55 0 0.1 -1.05c0.34,-3.68 -1.53,-5.52 -5.63,-5.52 -2.57,0 -5.33,0.94 -8.29,2.81l-2.26 -3.64c3.62,-2.68 7.57,-4.01 11.84,-4.01 3.26,0 5.85,0.82 7.76,2.47 1.91,1.65 2.7,4.25 2.37,7.79l-1.67 17.87zm-4.87 -10.32l0.22 -2.34 -6.56 0c-4.21,0 -6.43,1.32 -6.68,3.96 -0.12,1.35 0.3,2.38 1.28,3.1 0.97,0.71 2.39,1.06 4.24,1.06 1.86,0 3.53,-0.52 5.02,-1.56 1.49,-1.04 2.31,-2.45 2.48,-4.22zm27.41 -11.93c-2.89,0 -5.14,0.94 -6.78,2.82 -1.63,1.87 -2.6,4.39 -2.89,7.55l-1.12 11.88 -5.83 0 2.6 -27.72 5.83 0 -0.52 5.58c1.1,-1.74 2.51,-3.16 4.23,-4.28 1.72,-1.11 3.48,-1.68 5.29,-1.71l-0.5 5.88c-0.1,0 -0.21,0 -0.31,0zm28.7 10.94l-21.72 0c-0.05,2.02 0.71,3.64 2.3,4.87 1.59,1.24 3.47,1.85 5.66,1.85 3.48,0 6.22,-1.09 8.23,-3.28l2.99 3.65c-3.28,3.09 -7.31,4.63 -12.1,4.63 -3.89,0 -7.08,-1.29 -9.56,-3.88 -2.49,-2.58 -3.52,-6.06 -3.12,-10.42 0.41,-4.35 2.13,-7.82 5.14,-10.39 3.02,-2.57 6.42,-3.85 10.19,-3.85 3.76,0 6.86,1.13 9.29,3.41 2.42,2.27 3.45,5.41 3.08,9.4l-0.38 4.01zm-21.29 -4.58l15.88 0c0.22,-2.33 -0.34,-4.12 -1.68,-5.37 -1.34,-1.25 -3.08,-1.87 -5.22,-1.87 -2.13,0 -4.11,0.65 -5.94,1.95 -1.82,1.3 -2.84,3.07 -3.04,5.29zm44.95 7.6c-0.25,2.64 -1.4,4.75 -3.46,6.33 -2.05,1.58 -4.58,2.37 -7.56,2.37 -2.02,0 -4.08,-0.36 -6.18,-1.09 -2.1,-0.73 -3.92,-1.75 -5.47,-3.07l3.24 -4.54c3,2.44 6.01,3.65 9.04,3.65 1.32,0 2.39,-0.3 3.21,-0.91 0.82,-0.61 1.27,-1.38 1.36,-2.32 0.13,-1.39 -1.59,-2.64 -5.17,-3.75 -0.27,-0.1 -0.47,-0.17 -0.61,-0.21 -5.61,-1.56 -8.25,-4.17 -7.91,-7.81 0.24,-2.57 1.43,-4.63 3.57,-6.18 2.14,-1.54 4.81,-2.31 8.01,-2.31 3.19,0 6.13,0.93 8.8,2.81l-2.6 4.32c-2.11,-1.49 -4.49,-2.24 -7.13,-2.24 -1.39,0 -2.54,0.25 -3.46,0.76 -0.91,0.5 -1.42,1.26 -1.51,2.26 -0.09,0.91 0.3,1.57 1.17,1.98 0.59,0.32 1.44,0.61 2.54,0.89 1.11,0.28 2.08,0.56 2.92,0.83 0.84,0.28 1.66,0.59 2.44,0.94 0.79,0.35 1.62,0.83 2.49,1.46 1.76,1.25 2.52,3.19 2.27,5.83z"/>
  <polyline class="fil2" points="100.38,6.49 35.38,70.71 108.83,87.92 "/>
  <line class="fil2" x1="108.83" y1="87.92" x2="52.83" y2= "169.43" />
  <polyline class="fil2" points="100.82,11.08 78.3,55.27 149.4,63.28 "/>
  <line class="fil2" x1="158.13" y1="71.29" x2="52.83" y2= "169.43" />
  <path class="fil0" d="M58.94 46.33l40.61 -29.06 -8.89 -15.79c-0.52,-0.94 -1.58,-1.48 -2.79,-1.48 -1.21,0 -2.25,0.55 -2.79,1.48l-26.14 44.85z"/>
  <path class="fil3" d="M105.18 26.39l-21.4 26.8c-0.46,0.58 -0.4,1.33 -0.06,1.99 0.34,0.66 0.95,1.1 1.75,1.3l43.29 10.37 -23.58 -40.46z"/>
  <path class="fil3" d="M98.87 85.59l-55.26 -12.95 -43.27 74.25c-0.5,0.85 -0.45,1.79 0.14,2.6 0.58,0.81 1.54,1.27 2.65,1.27l62.53 0 34.93 -61.91c0.37,-0.65 0.37,-1.33 0.03,-1.98 -0.35,-0.65 -0.95,-1.09 -1.75,-1.28z"/>
  <path class="fil0" d="M140.78 87.47l-67.92 63.29 99.75 0c1.12,0 2.07,-0.46 2.66,-1.27 0.58,-0.81 0.63,-1.75 0.13,-2.6l-34.62 -59.42z"/>
  <path class="fil3" d="M649.41 65.44c-1.82,0 -3.46,0.18 -4.91,0.53 -1.43,0.35 -2.72,0.87 -3.86,1.55 -1.01,0.6 -1.79,1.34 -2.33,2.22 -0.56,0.9 -0.91,1.98 -1.03,3.23 -0.12,1.22 -0.01,2.28 0.35,3.16 0.33,0.81 0.9,1.52 1.7,2.1 0.98,0.72 2.68,1.51 5.09,2.38 2.58,0.92 5.85,1.87 9.79,2.85 4.24,1.05 7.93,2.32 11.08,3.8 3.24,1.53 5.92,3.3 8.05,5.31 2.26,2.14 3.85,4.77 4.77,7.9l0.04 0.14c0.84,2.97 1.07,6.37 0.69,10.18 -0.39,3.9 -1.5,7.46 -3.3,10.64 -1.8,3.19 -4.29,5.99 -7.46,8.41 -3.13,2.39 -6.66,4.18 -10.59,5.38 -3.88,1.19 -8.11,1.78 -12.69,1.78 -6.67,0 -12.89,-1.16 -18.62,-3.48 -5.73,-2.31 -10.96,-5.78 -15.68,-10.4 -0.99,-0.96 -1.02,-2.54 -0.09,-3.55l9.66 -10.36c0.95,-1.03 2.56,-1.08 3.59,-0.13l0.06 0.05c3.52,3.35 7.18,5.86 10.98,7.51 3.75,1.64 7.67,2.46 11.75,2.46 3.9,0 7.03,-0.8 9.38,-2.4 1.1,-0.75 1.95,-1.61 2.53,-2.55 0.57,-0.93 0.92,-1.98 1.04,-3.16 0.11,-1.16 0,-2.16 -0.33,-3 -0.31,-0.79 -0.86,-1.48 -1.62,-2.07 -0.93,-0.72 -2.31,-1.44 -4.11,-2.14 -1.93,-0.76 -4.3,-1.49 -7.09,-2.17 -2.98,-0.74 -5.58,-1.44 -7.79,-2.1 -2.27,-0.68 -4.19,-1.33 -5.76,-1.97 -1.63,-0.66 -3.15,-1.41 -4.56,-2.26 -1.4,-0.85 -2.72,-1.82 -3.94,-2.89 -2.58,-2.13 -4.41,-4.82 -5.47,-8.05 -1.03,-3.12 -1.34,-6.75 -0.92,-10.88 0.41,-4.13 1.54,-7.8 3.38,-11 1.84,-3.23 4.4,-5.98 7.66,-8.24 3.16,-2.18 6.63,-3.83 10.38,-4.92 3.74,-1.09 7.74,-1.64 11.99,-1.64 2.71,0 5.42,0.23 8.12,0.68 2.69,0.45 5.34,1.13 7.92,2.02 2.59,0.89 5.02,1.99 7.28,3.29 2.27,1.3 4.32,2.79 6.14,4.45 1.01,0.91 1.12,2.44 0.27,3.49l-8.37 10.35c-0.89,1.1 -2.5,1.26 -3.59,0.38l-0.31 -0.3c-0.92,-0.88 -2.02,-1.7 -3.31,-2.45 -1.4,-0.81 -3.02,-1.54 -4.85,-2.18 -1.83,-0.65 -3.7,-1.14 -5.56,-1.46 -1.84,-0.33 -3.69,-0.49 -5.55,-0.49zm104.49 -12.8l-1.29 12.71c-0.13,1.31 -1.23,2.3 -2.53,2.3l-41.1 0 -1.66 16.43 36.17 0c1.41,0 2.55,1.14 2.55,2.55l-1.25 12.46c-0.13,1.31 -1.24,2.3 -2.53,2.3l-36.68 0 -1.69 16.66 41.99 0c1.4,0 2.55,1.15 2.55,2.55l-1.33 13.17c-0.13,1.31 -1.24,2.29 -2.53,2.29l-58.52 0.01c-1.41,0 -2.56,-1.14 -2.56,-2.55l8.24 -81.58c0.13,-1.31 1.24,-2.29 2.53,-2.29l57.13 -0.01c1.41,0 2.55,1.14 2.55,2.55l-0.04 0.45zm76.31 26.21c-0.73,7.21 -2.92,13.13 -6.58,17.74 -3.08,3.87 -7.16,6.8 -12.23,8.76l16.62 26.83c0.74,1.2 0.37,2.76 -0.83,3.5 -0.41,0.26 -0.87,0.38 -1.33,0.38l-17.45 0.01c-1,0 -1.85,-0.57 -2.28,-1.39l-15.82 -25.96 -8.41 0c-0.5,0 -0.92,-0.19 -1.26,-0.56 -0.33,-0.36 -0.48,-0.81 -0.43,-1.3l1.43 -14.16c0.09,-0.87 0.82,-1.53 1.69,-1.53l8.73 0c3.73,0 6.83,-0.27 9.32,-0.83 2.31,-0.51 4.08,-1.25 5.3,-2.21 1.19,-0.95 2.15,-2.21 2.87,-3.77 0.78,-1.68 1.29,-3.71 1.53,-6.07 0.23,-2.33 0.13,-4.25 -0.31,-5.75 -0.37,-1.28 -1,-2.25 -1.88,-2.89 -1.02,-0.76 -2.6,-1.35 -4.74,-1.77 -2.34,-0.46 -5.27,-0.69 -8.8,-0.69l-15.16 0c-2.24,22.19 -4.48,44.38 -6.72,66.58 -0.13,1.31 -1.24,2.29 -2.53,2.29l-13.73 0.01c-1.41,0 -2.55,-1.14 -2.55,-2.55l8.23 -81.58c0.13,-1.31 1.24,-2.29 2.53,-2.29l30.25 -0.01c6.39,0 11.86,0.55 16.41,1.65 4.73,1.14 8.48,2.89 11.25,5.24 2.84,2.41 4.84,5.55 5.99,9.39 1.09,3.66 1.39,7.98 0.89,12.93zm79.78 0c-0.73,7.21 -2.93,13.13 -6.59,17.74 -3.08,3.87 -7.15,6.8 -12.23,8.76l14.23 22.96 41.89 -77.33c0.45,-0.85 1.33,-1.33 2.24,-1.34l14.66 0c1.17,0 2.16,0.79 2.46,1.87l27.57 81.19c0.45,1.33 -0.26,2.78 -1.59,3.23 -0.27,0.09 -0.55,0.13 -0.82,0.13l-14.66 0.01c-1.18,0 -2.17,-0.8 -2.46,-1.88l-5.64 -16.62 -29.99 0c-0.61,0 -1.14,-0.3 -1.46,-0.83 -0.31,-0.53 -0.32,-1.14 -0.03,-1.68l7.8 -14.39c0.3,-0.56 0.85,-0.89 1.49,-0.89l16.15 0 -8.37 -24.62c-10.76,19.86 -21.51,39.7 -32.26,59.56 -0.46,0.86 -1.34,1.34 -2.24,1.34l-31.96 0.01c-0.99,0 -1.85,-0.57 -2.27,-1.39l-15.82 -25.96 -8.41 0c-0.5,0 -0.92,-0.19 -1.26,-0.56 -0.33,-0.36 -0.48,-0.81 -0.43,-1.3l1.43 -14.16c0.09,-0.87 0.81,-1.53 1.69,-1.53l8.73 0c3.72,0 6.83,-0.27 9.31,-0.83 2.32,-0.51 4.09,-1.25 5.3,-2.21 1.19,-0.95 2.15,-2.21 2.88,-3.77 0.77,-1.68 1.29,-3.71 1.52,-6.07 0.24,-2.33 0.14,-4.25 -0.3,-5.75 -0.38,-1.28 -1,-2.25 -1.88,-2.89 -1.02,-0.76 -2.61,-1.35 -4.74,-1.77 -2.34,-0.46 -5.28,-0.69 -8.8,-0.69l-15.16 0c-2.24,22.19 -4.48,44.38 -6.72,66.58 -0.13,1.31 -1.24,2.29 -2.53,2.29l-13.73 0.01c-1.41,0 -2.55,-1.14 -2.55,-2.55l8.23 -81.58c0.13,-1.31 1.24,-2.29 2.53,-2.29l30.25 -0.01c6.38,0 11.86,0.55 16.41,1.65 4.73,1.14 8.48,2.89 11.25,5.24 2.84,2.41 4.84,5.55 5.98,9.39 1.1,3.66 1.4,7.98 0.9,12.93z"/>
 </g>
</svg>
